# AST/ASF file generated using VICON BodyLanguage
# -----------------------------------------------
:version 1.10
:name VICON
:units
  mass 1.0
  length 0.45
  angle deg
:documentation
   .ast/.asf automatically generated from VICON data using
   VICON BodyBuilder and BodyLanguage model FoxedUp or BRILLIANT.MOD
:root
   order TX TY TZ RX RY RZ
   axis XYZ
   position 0 0 0  
   orientation 0 0 0 
:bonedata
  begin
     id 1 
     name lhipjoint
     direction 0.643824 -0.71708 0.266994 
     length 2.52133 
     axis 0 0 0  XYZ
  end
  begin
     id 2 
     name lfemur
     direction 0.34202 -0.939693 0  
     length 7.51824  
     axis 0 0 20  XYZ
    dof rx ry rz
    limits (-160.0 20.0)
           (-70.0 70.0)
           (-60.0 70.0)
  end
  begin
     id 3 
     name ltibia
     direction 0.34202 -0.939693 0   
     length 7.3685   
     axis 0 0 20   XYZ
    dof rx
    limits (-10.0 170.0)
  end
  begin
     id 4 
     name lfoot
     direction 0.105419 -0.289636 0.951314   
     length 2.20972   
     axis -90 7.62852e-016 20   XYZ
    dof rx rz
    limits (-45.0 90.0)
           (-70.0 20.0)
  end
  begin
     id 5 
     name ltoes
     direction 1.53549e-011 -4.21833e-011 1   
     length 1.10139   
     axis -90 7.62852e-016 20   XYZ
    dof rx
    limits (-90.0 20.0)
  end
  begin
     id 6 
     name rhipjoint
     direction -0.608823 -0.743445 0.276811   
     length 2.43192  
     axis 0 0 0  XYZ 
  end
  begin
     id 7 
     name rfemur
     direction -0.34202 -0.939693 0   
     length 7.69715   
     axis 0 0 -20   XYZ
    dof rx ry rz
    limits (-160.0 20.0)
           (-70.0 70.0)
           (-70.0 60.0)
  end
  begin
     id 8 
     name rtibia
     direction -0.34202 -0.939693 0   
     length 7.44924   
     axis 0 0 -20   XYZ
    dof rx
    limits (-10.0 170.0)
 end
 begin
     id 9 
     name rfoot
     direction -0.103614 -0.284677 0.953007   
     length 2.22623  
     axis -90 -7.62852e-016 -20   XYZ
    dof rx rz
    limits (-45.0 90.0)
           (-20.0 70.0)
  end
  begin
     id 10 
     name rtoes
     direction -1.53537e-011 -4.22026e-011 1   
     length 1.11   
     axis -90 -7.62852e-016 -20   XYZ
    dof rx
    limits (-90.0 20.0)
  end
  begin
     id 11 
     name lowerback
     direction -0.0101212 0.99662 -0.0815298   
     length 2.08277   
     axis 0 0 0   XYZ
    dof rx ry rz
    limits (-20.0 45.0)
           (-30.0 30.0)
           (-30.0 30.0)
  end
  begin
     id 12 
     name upperback
     direction 0.024314 0.999591 -0.0150645   
     length 2.08524   
     axis 0 0 0   XYZ
    dof rx ry rz
    limits (-20.0 45.0)
           (-30.0 30.0)
           (-30.0 30.0)
  end
  begin
     id 13 
     name thorax
     direction 0.0285959 0.999323 0.0231357   
     length 2.09645   
     axis 0 0 0   XYZ
    dof rx ry rz
    limits (-20.0 45.0)
           (-30.0 30.0)
           (-30.0 30.0)
  end
  begin
     id 14 
     name lowerneck
     direction -0.065512 0.979301 0.191515   
     length 1.63798   
     axis 0 0 0   XYZ
    dof rx ry rz
    limits (-20.0 45.0)
           (-30.0 30.0)
           (-30.0 30.0)
  end
  begin
     id 15 
     name upperneck
     direction 0.0498479 0.98191 -0.182667   
     length 1.68731   
     axis 0 0 0   XYZ
    dof rx ry rz
    limits (-20.0 45.0)
           (-30.0 30.0)
           (-30.0 30.0)
  end
  begin
     id 16
     name head
     direction 0.0230358 0.996257 -0.0833175  
     length 1.69785  
     axis 0 0 0   XYZ
    dof rx ry rz
    limits (-20.0 45.0)
           (-30.0 30.0)
           (-30.0 30.0)
  end
  begin
     id 17 
     name lclavicle
     direction 0.967963 0.201165 -0.150269  
     length 3.63976  
     axis 0 0 0   XYZ
    dof ry rz
    limits (-20.0 10.0)
           (0.0 20.0)
  end
  begin
     id 18 
     name lhumerus
     direction 1 -4.48954e-011 -2.92837e-028   
     length 5.32462   
     axis 180 -30 -90   XYZ
    dof rx ry rz
    limits (-60.0 90.0)
           (-90.0 90.0)
           (-90.0 90.0)
  end
  begin
     id 19
     name lradius
     direction 1 -4.48958e-011 -6.39511e-027   
     length 3.48402   
     axis 180 -30 -90   XYZ
    dof rx
    limits (-10.0 170.0)
  end
  begin
     id 20
     name lwrist
     direction 1 -4.48975e-011 -1.1413e-026   
     length 1.74201   
     axis 6.88575e-015 90 90   XYZ
    dof ry
    limits (-180.0 0.0)
 end
  begin
     id 21 
     name lhand
     direction 1 -4.48899e-011 -2.28192e-026   
     length 0.572476   
     axis 1.45643e-014 90 90   XYZ
    dof rx rz
    limits (-90.0 90.0)
           (-45.0 45.0)
  end
  begin
     id 22 
     name lfingers
     direction 1 -4.49155e-011 -4.5684e-026   
     length 0.461545   
     axis 2.91283e-014 90 90   XYZ
    dof rx
    limits (0.0 90.0)
  end
  begin
     id 23
     name lthumb
     direction 0.707107 -6.34943e-011 0.707107   
     length 0.662688   
     axis -90 45 -2.25915e-014   XYZ
    dof rx rz
    limits (-45.0 45.0)
           (-45.0 45.0)
  end
  begin
     id 24 
     name rclavicle
     direction -0.964103 0.264019 -0.0282629   
     length 3.54491  
     axis 0 0 0   XYZ 
    dof ry rz
    limits (-10.0 20.0)
           (-20.0 0.0)
  end
  begin
     id 25 
     name rhumerus
     direction -1 -4.48964e-011 -2.45032e-027  
     length 5.33589   
     axis 180 30 90   XYZ
    dof rx ry rz
    limits (-90.0 60.0)
           (-90.0 90.0)
           (-90.0 90.0)
  end
  begin
     id 26 
     name rradius
     direction -1 -4.48987e-011 -1.55093e-027   
     length 3.64134   
     axis 180 30 90   XYZ
    dof rx
    limits (-10.0 170.0)
  end
  begin
     id 27 
     name rwrist
     direction -1 -4.4897e-011 -1.14128e-026   
     length 1.82067   
     axis 6.88575e-015 -90 -90   XYZ
    dof ry
    limits (-180.0 0.0)
  end
  begin
     id 28
     name rhand
     direction -1 -4.49021e-011 -2.28301e-026   
     length 0.734811   
     axis 1.45643e-014 -90 -90   XYZ
    dof rx rz
    limits (-90.0 90.0)
           (-45.0 45.0)
  end
  begin
     id 29
     name rfingers
     direction -1 -4.48862e-011 -4.56319e-026   
     length 0.592424   
     axis 2.91283e-014 -90 -90   XYZ
    dof rx
    limits (0.0 90.0)
  end
  begin
     id 30
     name rthumb
     direction -0.707107 -6.34978e-011 0.707107   
     length 0.850605   
     axis -90 -45 2.25915e-014   XYZ
    dof rx rz
    limits (-45.0 45.0)
           (-45.0 45.0)
  end
:hierarchy
  begin
    root lhipjoint rhipjoint lowerback
    lhipjoint lfemur
    lfemur ltibia
    ltibia lfoot
    lfoot ltoes
    rhipjoint rfemur
    rfemur rtibia
    rtibia rfoot
    rfoot rtoes
    lowerback upperback
    upperback thorax
    thorax lowerneck lclavicle rclavicle
    lowerneck upperneck
    upperneck head
    lclavicle lhumerus
    lhumerus lradius
    lradius lwrist
    lwrist lhand lthumb
    lhand lfingers
    rclavicle rhumerus
    rhumerus rradius
    rradius rwrist
    rwrist rhand rthumb
    rhand rfingers
  end

#!OML:ASF F:\VICON\USERDATA\INSTALL\rory3\rory3.ASF
:FULLY-SPECIFIED
:DEGREES
1
root 0.666036 17.6627 13.9334 -175.568 -38.1945 -179.626
lowerback 4.63086 2.78503 0.130016
upperback -0.848095 3.7655 2.0178
thorax -3.5966 1.87999 1.71603
lowerneck -18.407 9.49077 -5.26602
upperneck 31.7633 13.1247 4.85551
head 12.9192 5.43784 4.73873
rclavicle 6.38099e-014 3.97569e-014
rhumerus -38.0986 -10.172 -76.0017
rradius 33.7805
rwrist 20.0917
rhand -16.2237 4.07408
rfingers 7.12502
rthumb 9.98433 -25.6691
lclavicle 6.38099e-014 3.97569e-014
lhumerus -29.1386 12.1839 83.8211
lradius 25.7124
lwrist -6.39683
lhand -14.0385 26.3571
lfingers 7.12502
lthumb 12.092 55.9877
rfemur -18.3795 -4.11112 23.2105
rtibia 35.4718
rfoot -22.6372 -7.0433
rtoes 18.1824
lfemur -17.0198 2.61966 -22.2564
ltibia 38.2907
lfoot -14.2198 13.829
ltoes -16.4528
2
root 0.674417 17.6818 13.9305 -175.704 -37.8765 -179.439
lowerback 4.8498 2.79746 0.272697
upperback -0.880101 3.79379 2.05451
thorax -3.7472 1.89038 1.66023
lowerneck -18.357 9.0008 -5.46191
upperneck 32.2957 12.3835 4.98317
head 13.1554 5.05127 4.74484
rclavicle -2.41523e-014 -1.35174e-014
rhumerus -38.117 -10.13 -75.8845
rradius 33.7781
rwrist 20.1999
rhand -16.1737 3.91393
rfingers 7.12502
rthumb 10.0326 -25.8269
lclavicle -2.41523e-014 -1.35174e-014
lhumerus -29.1713 11.4148 84.3067
lradius 26.218
lwrist -5.18894
lhand -14.1913 26.6602
lfingers 7.12502
lthumb 11.9447 56.2994
rfemur -18.3641 -4.19124 23.4461
rtibia 35.4114
rfoot -22.4585 -7.94882
rtoes 11.8051
lfemur -17.6756 2.44265 -21.9913
ltibia 39.5182
lfoot -13.8002 13.7514
ltoes -16.4229
3
root 0.682358 17.6849 13.928 -175.804 -37.5848 -179.394
lowerback 5.03267 2.76019 0.259146
upperback -0.826399 3.74528 2.12078
thorax -3.79862 1.86608 1.73253
lowerneck -18.8104 8.47933 -6.00141
upperneck 33.1964 11.6859 5.30257
head 13.6179 4.63923 4.94134
rclavicle -5.14355e-014 -3.81667e-014
rhumerus -37.8482 -9.95799 -75.7565
rradius 33.5456
rwrist 20.2875
rhand -16.245 3.88007
rfingers 7.12502
rthumb 9.96381 -25.8641
lclavicle -5.14355e-014 -3.81667e-014
lhumerus -29.1448 11.0671 84.6765
lradius 26.6577
lwrist -4.42197
lhand -15.1131 28.113
lfingers 7.12502
lthumb 11.0556 57.8018
rfemur -18.1135 -4.14373 23.4949
rtibia 35.0915
rfoot -22.3463 -8.10047
rtoes 11.2162
lfemur -18.296 2.10692 -21.8154
ltibia 40.8155
lfoot -13.4456 13.6271
ltoes -15.3562
4
root 0.689089 17.702 13.9218 -175.922 -37.2549 -179.454
lowerback 5.22943 2.70965 0.101727
upperback -0.699183 3.66898 2.2051
thorax -3.79097 1.831 1.90768
lowerneck -19.1273 7.95797 -6.43773
upperneck 33.875 11.0333 5.35352
head 14.0015 4.23489 5.00131
rclavicle 1.69961e-014 1.82882e-014
rhumerus -37.5398 -9.72779 -75.6443
rradius 33.401
rwrist 20.3606
rhand -16.565 3.98379
rfingers 7.12502
rthumb 9.65504 -25.7749
lclavicle 1.69961e-014 1.82882e-014
lhumerus -29.1022 11.5943 84.6417
lradius 26.7343
lwrist -5.01258
lhand -14.9905 27.5028
lfingers 7.12502
lthumb 11.174 57.1853
rfemur -17.8906 -3.98268 23.4466
rtibia 34.8548
rfoot -21.8373 -8.16836
rtoes 11.8157
lfemur -18.7435 1.66054 -21.6956
ltibia 41.9902
lfoot -12.6954 13.4766
ltoes -12.9122
5
root 0.693368 17.7007 13.9183 -176.077 -36.8524 -179.359
lowerback 5.3672 2.68827 0.107802
upperback -0.601938 3.64032 2.2752
thorax -3.7711 1.81558 1.97518
lowerneck -18.9709 7.46419 -6.49157
upperneck 34.126 10.3713 5.02836
head 14.1609 3.85348 4.78955
rclavicle -9.44227e-016 1.90833e-014
rhumerus -37.3414 -9.55242 -75.5439
rradius 33.4533
rwrist 20.3436
rhand -16.6612 4.12552
rfingers 7.12502
rthumb 9.56226 -25.6375
lclavicle -9.44227e-016 1.90833e-014
lhumerus -29.0939 12.1516 84.5331
lradius 26.7859
lwrist -5.41133
lhand -14.3037 26.3594
lfingers 7.12502
lthumb 11.8362 56.0049
rfemur -17.6624 -3.72076 23.5338
rtibia 34.4947
rfoot -21.3948 -7.53383
rtoes 16.8996
lfemur -19.3286 1.32179 -21.4925
ltibia 43.2465
lfoot -11.6835 13.3752
ltoes -10.3369
6
root 0.694871 17.7187 13.9142 -176.199 -36.3901 -179.174
lowerback 5.41731 2.68162 0.232926
upperback -0.535061 3.63752 2.31493
thorax -3.72468 1.8104 1.946
lowerneck -18.8513 6.94977 -6.58329
upperneck 34.4454 9.63404 4.85146
head 14.3492 3.45206 4.634
rclavicle -4.75592e-014 7.95139e-016
rhumerus -37.0787 -9.60909 -75.4259
rradius 33.3932
rwrist 20.3262
rhand -16.3807 4.28744
rfingers 7.12502
rthumb 9.83288 -25.463
lclavicle -4.75592e-014 7.95139e-016
lhumerus -29.2522 11.8932 84.6133
lradius 27.2418
lwrist -4.75222
lhand -14.1918 26.3987
lfingers 7.12502
lthumb 11.9442 56.038
rfemur -17.5404 -3.46471 23.7154
rtibia 34.2465
rfoot -20.9835 -7.86393
rtoes 13.9958
lfemur -19.9252 1.10333 -21.2398
ltibia 44.3412
lfoot -11.0123 13.2529
ltoes -9.84086
7
root 0.695497 17.7018 13.9099 -176.3 -35.8971 -179.108
lowerback 5.50311 2.694 0.277346
upperback -0.476085 3.6557 2.305
thorax -3.70902 1.81769 1.9068
lowerneck -18.7798 6.4221 -6.84772
upperneck 34.9316 8.8382 4.91638
head 14.6013 3.02493 4.6034
rclavicle 7.76254e-014 6.36111e-015
rhumerus -36.8527 -9.74952 -75.3057
rradius 33.275
rwrist 20.2782
rhand -16.3784 4.30918
rfingers 7.12502
rthumb 9.83508 -25.4411
lclavicle 7.76254e-014 6.36111e-015
lhumerus -29.641 11.2387 84.66
lradius 27.8957
lwrist -3.9524
lhand -14.3033 27.0297
lfingers 7.12502
lthumb 11.8367 56.6751
rfemur -17.4477 -3.23145 23.7327
rtibia 34.0712
rfoot -20.8447 -7.04466
rtoes 17.9416
lfemur -20.516 0.890961 -21.0884
ltibia 45.4111
lfoot -10.6597 13.0761
ltoes -11.0044
